<svg xmlns="http://www.w3.org/2000/svg" version="1.1" xmlns:xlink="http://www.w3.org/1999/xlink" xmlns:svgjs="http://svgjs.dev/svgjs" width="2000" height="2934" viewBox="0 0 2000 2934"><g transform="matrix(1,0,0,1,-1.117594291874866,-4.732258064516145)"><svg viewBox="0 0 169 248" data-background-color="#000000" preserveAspectRatio="xMidYMid meet" height="2934" width="2000" xmlns="http://www.w3.org/2000/svg" xmlns:xlink="http://www.w3.org/1999/xlink"><g id="tight-bounds" transform="matrix(1,0,0,1,0.09443671766342732,0.4000000000000057)"><svg viewBox="0 0 168.81112656467315 247.2" height="247.2" width="168.81112656467315"><g><svg viewBox="0 0 168.81112656467315 247.2" height="247.2" width="168.81112656467315"><g><svg viewBox="0 0 168.81112656467315 247.2" height="247.2" width="168.81112656467315"><g id="textblocktransform"><svg viewBox="0 0 168.81112656467315 247.2" height="247.2" width="168.81112656467315" id="textblock"><g><svg viewBox="0 0 168.81112656467315 247.2" height="247.2" width="168.81112656467315"><g transform="matrix(1,0,0,1,0,0)"><svg width="168.81112656467315" viewBox="2.6 -35.35 24.549999999999997 35.95" height="247.2" data-palette-color="url(#ccc77241-c698-4762-8c15-fdb7db3f5ae7)"></svg></g></svg></g></svg></g></svg></g></svg></g><defs></defs><mask id="2795c335-4348-4bc8-99cb-4b3266ca1a91"><g id="SvgjsG2075"><svg viewBox="0 0 168.81112656467315 247.2" height="247.2" width="168.81112656467315"><g><svg viewBox="0 0 168.81112656467315 247.2" height="247.2" width="168.81112656467315"><g><svg viewBox="0 0 168.81112656467315 247.2" height="247.2" width="168.81112656467315"><g id="SvgjsG2074"><svg viewBox="0 0 168.81112656467315 247.2" height="247.2" width="168.81112656467315" id="SvgjsSvg2073"><g><svg viewBox="0 0 168.81112656467315 247.2" height="247.2" width="168.81112656467315"><g transform="matrix(1,0,0,1,0,0)"><svg width="168.81112656467315" viewBox="2.6 -35.35 24.549999999999997 35.95" height="247.2" data-palette-color="url(#ccc77241-c698-4762-8c15-fdb7db3f5ae7)"><path d="M14.6 0.6Q11.55 0.6 8.08-0.3 4.6-1.2 2.6-2.75L2.6-2.75 2.6-8.9Q2.6-9.2 2.8-9.43 3-9.65 3.35-9.65L3.35-9.65Q3.95-9.65 4.33-9.2 4.7-8.75 4.9-7.6L4.9-7.6 5.55-4.4Q7.05-3.3 9.5-2.73 11.95-2.15 14.3-2.15L14.3-2.15Q18-2.15 20.55-3.53 23.1-4.9 23.1-7.95L23.1-7.95Q23.1-9.9 22.13-11.23 21.15-12.55 19.15-13.65 17.15-14.75 13.3-16.3L13.3-16.3Q8.1-18.4 5.43-20.73 2.75-23.05 2.75-26.7L2.75-26.7Q2.75-31.05 6.1-33.2 9.45-35.35 14.25-35.35L14.25-35.35Q17.4-35.35 20.43-34.4 23.45-33.45 25.4-31.8L25.4-31.8 25.4-25.9Q25.4-25.15 24.65-25.15L24.65-25.15Q24.05-25.15 23.7-25.58 23.35-26 23.1-27.2L23.1-27.2 22.45-30.35Q21.05-31.45 18.98-32.02 16.9-32.6 14.5-32.6L14.5-32.6Q11.15-32.6 8.97-31.28 6.8-29.95 6.8-27.2L6.8-27.2Q6.8-25.3 7.93-24 9.05-22.7 10.95-21.75 12.85-20.8 16.9-19.05L16.9-19.05Q20.45-17.6 22.63-16.23 24.8-14.85 25.98-12.93 27.15-11 27.15-8.3L27.15-8.3Q27.15-3.8 23.63-1.6 20.1 0.6 14.6 0.6L14.6 0.6Z" opacity="1" transform="matrix(1,0,0,1,0,0)" fill="white" class="wordmark-text-0" id="SvgjsPath2072"></path></svg></g></svg></g></svg></g></svg></g></svg></g><defs><mask></mask></defs></svg><rect width="168.81112656467315" height="247.2" fill="black" stroke="none" visibility="hidden"></rect></g></mask><linearGradient x1="0" x2="1" y1="0.548" y2="0.55" id="ccc77241-c698-4762-8c15-fdb7db3f5ae7"><stop stop-color="#ff6cab" offset="0"></stop><stop stop-color="#7366ff" offset="1"></stop></linearGradient><rect width="168.81112656467315" height="247.2" fill="url(#ccc77241-c698-4762-8c15-fdb7db3f5ae7)" mask="url(#2795c335-4348-4bc8-99cb-4b3266ca1a91)" data-fill-palette-color="primary"></rect></svg><rect width="168.81112656467315" height="247.2" fill="none" stroke="none" visibility="hidden"></rect></g></svg></g></svg>